<?xml version="1.0"?><svg version="1.2" baseProfile="tiny-ps" viewBox="0 0 300 300" xmlns="http://www.w3.org/2000/svg" xmlns:xlink="http://www.w3.org/1999/xlink"><title>optium</title><g><g fill="#fff" transform="matrix(.1 0 0 -.1 0 300)"><path d="M0 1500V0h3000v3000H0V1500z"/></g><g fill="#ffd9d9" transform="matrix(.1 0 0 -.1 0 300)"><path d="M0 1500V0h3000v3000H0V1500zm622 20-3-170H210v330h69l3-127 3-128 128-3 127-3v261H294l-39 40-39 39 165 3 164 3 40-37 40-37-3-171zm498 162-10-4v-328H780v-130h-70v450h70v-250h260v260H791l-36 35c-19 20-35 38-35 40 0 3 73 6 163 7l162 3 43-40 43-40-11-3zm360 0-90-3v-329h-80v330h-81l-34 34c-19 18-35 36-35 39 0 4 73 8 163 9l162 3 43-40 43-40-91-3zm220 0-10-4v-328h-70v330h54l-27 28-27 28v38l45-44 46-45-11-3zm160 43c0-19-1-35-3-35s-18 16-37 35l-34 35h74v-35zm332-205-3-170h-409v330h80v-261l128 3 127 3 3 169 2 170 38-37 37-36-3-171zm298 232c0-4 9-13 21-20l21-13 22 20 22 21h128l36-35 35-34-3-171-3-170h-69v330h-140v-330h-70v330h-126l-39 40-39 40h204v-8zm-140-237v-165h-70v330h70v-165z"/></g><g fill="#ffa7a7" transform="matrix(.1 0 0 -.1 0 300)"><path d="M0 1500V0h3000v3000H0V1500zm589 233 36-38-3-172-3-173H210v329l37 3 37 3-38 37-39 38 169 3c93 1 171 4 173 5s20-15 40-35zm533-212-3-171-167-2-167-3-3-62-3-63h-79v460h80v-250h260v250H784l-39 40-39 40 170 2 169 3 40-37 40-37-3-170zm408 204 44-45h-184v-330h-80v330h-86l-39 40-39 39 165 4c90 1 166 4 169 5s26-18 50-43zm172-205-3-170h-79v330h43l-21 23-22 23v48l43-42 42-41-3-171zm468 205 44-45h-24v-330h-410v330h80v-250h250v340h8c4 0 28-20 52-45zm580 0 44-45h-24v-330h-80v330h-120v-330h-80v330h-130v-330h-80v329l37 3 37 3-38 38-39 37h210l18-20 18-20 21 19 21 20 65 4c36 2 67 4 70 5s26-18 50-43zm-890 0c0-19-1-35-3-35s-18 16-37 35l-34 35h74v-35zM290 1555v-125h250v250H290v-125z"/></g><g fill="#ff8787" transform="matrix(.1 0 0 -.1 0 300)"><path d="M0 1500V0h3000v3000H0V1500zm630 182-10-4v-328H200v330h84l-39 40-39 40h323l7 11 6 11 49-48 50-49-11-3zm850 0-90-3v-329h-80v330h-86l-39 40-39 40h324v24l50-49 51-50-91-3zm222-162-3-170h-89v330h54l-27 28-27 28v48l48-47 47-46-3-171zm500 0-3-170h-419v330h74l-39 40-39 40h84v-330h250v354l48-47 47-46-3-171zm580 0-3-170h-89v330h-120v-330h-90v330h-120v-330h-90v330h84l-39 40-39 40h208l21-20 22-20 18 20 18 20h127v24l48-47 47-46-3-171zm-1697 210 40-39-3-176-3-175H790v-120h-90v460h84l-39 40-39 39 165 4c90 1 166 4 169 5 2 1 22-16 45-38zm-795-175v-125h250v250H290v-125zm500 0v-125h240v250H790v-125z"/></g><g fill="#ff5a5a" transform="matrix(.1 0 0 -.1 0 300)"><path d="M0 1500V0h3000v3000H0V1500zm630 18-5-173H205l-3 168-2 167h84l-37 38c-20 21-37 41-37 45v7l168 2 167 3 45-42 45-42-5-173zm464 213 48-49-11-6-11-7v-329H790v-120h-90v460h74l-32 33c-18 18-32 36-32 40v7h320v10c0 19 16 10 64-39zm441-1 49-50h-194v-340h-80l-2 168-3 167-44 3-45 3-38 38c-21 21-38 41-38 45 0 3 75 7 168 9 92 1 169 4 172 5s28-20 55-48zm140 0 49-50h-24v-341l-42 3-43 3-3 168-2 167h20c25 0 25 12 0 35l-20 18v24c0 12 4 23 8 23s30-22 57-50zm525-212-5-173h-420l-3 168-2 167h84l-37 38c-20 21-37 41-37 45s18 7 40 7h40v-340h250v354l48-47 47-46-5-173zm542 220 43-43-5-175-5-175-42-3-43-3v341h-120v-340h-90v340h-120v-341l-42 3-43 3-3 168-2 167h84l-37 38c-20 21-37 41-37 45v7h197l28-22 28-22 14 20 14 19 67 6c37 3 68 7 69 7 2 1 22-17 45-40zM290 1555v-125h250v250H290v-125zm500 0v-125h240v250H790v-125z"/></g><g fill="#ff3c3c" transform="matrix(.1 0 0 -.1 0 300)"><path d="M0 1500V0h3000v3000H0V1500zm1574 178-5-8h-169l-2-162-3-163-47-3-48-3v331h-70l-45 41c-25 23-45 45-45 50v9h330v24l55-54 54-53-5-9zm136-2-10-10v-326h-90v340h43l-21 23-22 23v68l55-54 55-54-10-10zm500 0-10-10v-326h-430v340h84l-44 45-44 45h94v-330h240v337l7 7 7 7 53-53 53-52-10-10zm580 0-10-10v-326h-90v330h-120v-330h-90v330h-120v-330h-90v340h35c19 0 35 3 35 6 0 4-17 23-37 43l-37 36 108 3 109 3 22-21 22-20 18 20 18 20h127v24l55-54 55-54-10-10zm-2195 58 46-47-5-14c-4-8-6-86-6-174v-159H200v340h35c19 0 35 3 35 6 0 4-17 23-37 43l-37 36 169 5c94 3 173 7 177 8 3 1 27-19 53-44zm495-1 45-48-5-170-5-170-167-3-168-2v-130h-90v470h74l-37 38c-20 21-37 41-37 45v7l168 3c92 1 169 4 172 5s26-19 50-45zm-800-178v-115h240v230H290v-115zm500-5v-120h240v240H790v-120z"/></g></g></svg>